
<svg xmlns="http://www.w3.org/2000/svg" width="48" height="48" viewBox="0 0 256 256" fill="none">
  <rect width="256" height="256" rx="56" fill="#290000"/>
  <rect x="20" y="20" width="216" height="216" rx="44" stroke="#FF0000" stroke-width="10" fill="none"/>
  <path d="M128 72C136 96 147 121 160 143C171 141 181 142 190 146C196 149 200 154 199 160C197 171 182 173 167 169C157 166 146 160 136 153C126 167 116 177 106 183C94 190 82 191 75 184C68 177 71 166 82 156C92 147 106 141 121 139C129 124 123 112 114 91L128 72ZM118 154C109 157 101 162 95 167C90 171 89 174 90 175C91 176 95 176 101 173C106 170 112 164 118 154ZM143 145C151 150 159 154 166 156C173 158 178 158 180 156C181 155 179 153 176 151C171 148 165 147 157 147C152 147 148 147 143 145ZM131 126C128 119 125 111 122 103C124 111 126 119 128 126L129 129L131 126Z" fill="#FF0000"/>
</svg>
  